<?xml version="1.0" standalone="no"?>
<!DOCTYPE svg PUBLIC "-//W3C//DTD SVG 20010904//EN"
 "http://www.w3.org/TR/2001/REC-SVG-20010904/DTD/svg10.dtd">
<svg version="1.0" xmlns="http://www.w3.org/2000/svg"
 width="430.000000pt" height="430.000000pt" viewBox="0 0 430.000000 430.000000"
 preserveAspectRatio="xMidYMid meet">
<metadata>
Created by potrace 1.11, written by Peter Selinger 2001-2013
</metadata>
<g transform="translate(0.000000,430.000000) scale(0.100000,-0.100000)"
fill="#000000" stroke="none">
<path d="M1701 4145 c-265 -58 -532 -228 -676 -430 -118 -165 -203 -406 -247
-700 -21 -140 -17 -624 5 -795 37 -274 127 -716 197 -974 80 -291 217 -619
361 -867 41 -72 118 -173 125 -166 2 2 -39 112 -92 243 -208 517 -267 742
-281 1075 -3 80 -3 163 2 185 l7 39 28 -33 c15 -19 58 -100 96 -180 96 -208
172 -360 207 -412 70 -105 146 -160 201 -146 20 5 25 0 35 -34 18 -61 85 -112
209 -161 173 -68 314 -99 446 -99 116 0 141 -6 131 -32 -15 -38 -309 -225
-649 -413 -97 -54 -175 -100 -172 -102 8 -8 221 37 350 73 389 111 691 289
893 525 74 86 193 266 241 364 98 198 159 464 177 765 13 215 -48 351 -190
423 -49 24 -144 40 -199 32 -139 -18 -235 -105 -277 -250 -11 -38 -25 -82 -31
-97 -8 -22 -7 -31 6 -44 12 -11 15 -25 11 -48 -4 -17 -2 -43 4 -57 9 -25 7
-28 -30 -44 -21 -10 -39 -21 -39 -24 0 -3 9 -19 21 -36 73 -108 122 -254 123
-365 0 -175 -51 -193 -544 -195 -168 0 -318 -4 -333 -9 l-29 -9 15 29 c49 95
127 401 127 498 0 127 -70 288 -216 495 -267 379 -309 449 -339 561 -19 72
-19 201 0 275 20 74 98 234 147 300 127 168 355 272 541 247 157 -21 262 -92
319 -212 33 -70 62 -209 55 -264 -6 -42 -10 -47 -128 -146 -80 -67 -99 -146
-74 -313 13 -96 14 -133 5 -213 -16 -151 -66 -283 -142 -379 l-40 -50 26 -3
c47 -6 108 41 178 135 92 124 169 194 258 236 41 20 88 49 104 66 l29 30 -80
84 c-93 97 -126 165 -121 251 3 44 6 51 26 54 12 2 22 -1 22 -7 0 -16 58 -78
95 -101 33 -20 36 -20 89 -5 30 9 68 17 83 18 26 2 29 7 41 72 19 100 10 362
-18 480 -41 183 -91 305 -175 435 -185 287 -447 441 -744 439 -58 0 -135 -7
-170 -14z m544 -1890 c-20 -87 -65 -172 -117 -221 l-42 -39 36 43 c61 74 124
225 129 313 2 22 2 22 6 -2 2 -15 -3 -57 -12 -94z m722 -215 c98 -59 84 -171
-35 -285 -26 -25 -62 -50 -82 -57 -41 -14 -142 -17 -185 -5 l-29 8 42 19 c44
20 92 64 92 85 0 6 -14 18 -32 26 -17 8 -40 26 -51 41 -17 23 -18 31 -8 56 17
42 69 92 116 113 54 25 131 24 172 -1z"/>
<path d="M2807 1973 c-31 -8 -1 -73 34 -73 23 0 69 21 69 31 0 8 -75 51 -82
48 -2 -1 -11 -3 -21 -6z"/>
<path d="M2774 2613 c-10 -16 -13 -16 -29 -3 -15 13 -19 12 -36 -9 -15 -19
-17 -27 -7 -38 9 -11 9 -19 1 -32 -9 -14 -7 -20 10 -31 20 -12 25 -9 64 36 46
52 50 63 31 82 -16 16 -21 15 -34 -5z"/>
</g>
</svg>
